<?xml version="1.0" encoding="UTF-8" standalone="no"?>
<!DOCTYPE svg PUBLIC "-//W3C//DTD SVG 1.1//EN" "http://www.w3.org/Graphics/SVG/1.1/DTD/svg11.dtd">
<svg xmlns="http://www.w3.org/2000/svg" version="1.1" viewBox="0.00 0.00 100.00 100.00">
<g stroke-width="2.00" fill="none" stroke-linecap="butt">
<path stroke="#0fc1a2" vector-effect="non-scaling-stroke" d="
  M 80.09 20.48
  L 72.38 28.28"
/>
<path stroke="#f9a02c" vector-effect="non-scaling-stroke" d="
  M 28.56 71.82
  L 20.82 79.87"
/>
</g>
<path fill="#1ad3bb" d="
  M 80.09 20.48
  L 72.38 28.28
  Q 61.48 17.79 46.22 19.41
  Q 45.61 19.47 45.18 19.04
  L 37.07 10.92
  Q 36.57 10.41 37.25 10.19
  C 52.45 5.31 68.88 9.06 80.09 20.48
  Z"
/>
<path fill="#f78613" d="
  M 28.56 71.82
  L 20.82 79.87
  Q 14.78 73.64 11.86 66.66
  Q 4.11 48.11 13.80 29.45
  Q 14.05 28.96 13.91 28.44
  C 11.56 19.78 18.01 12.23 26.75 13.08
  C 32.00 13.59 36.42 18.23 37.01 23.45
  C 37.92 31.55 31.36 37.47 23.29 36.61
  Q 22.37 36.51 22.06 37.39
  Q 15.09 57.25 28.56 71.82
  Z"
/>
<path fill="#03af89" d="
  M 80.09 20.48
  Q 84.55 24.95 86.59 28.72
  Q 98.03 49.94 86.72 71.05
  Q 86.50 71.46 86.61 71.90
  C 89.97 85.16 71.77 92.39 64.89 80.73
  C 59.49 71.57 67.69 61.16 77.72 63.18
  Q 78.26 63.29 78.48 62.78
  C 83.64 50.49 81.37 38.15 72.38 28.28
  L 80.09 20.48
  Z"
/>
<path fill="#fbb945" d="
  M 28.56 71.82
  Q 39.13 82.06 54.02 80.59
  A 1.30 1.28 -25.1 0 1 55.06 80.96
  L 63.49 89.37
  A 0.36 0.36 0.0 0 1 63.33 89.97
  Q 39.20 96.65 20.82 79.87
  L 28.56 71.82
  Z"
/>
</svg>
