<?xml version="1.0" encoding="UTF-8" standalone="no"?>
<!DOCTYPE svg PUBLIC "-//W3C//DTD SVG 1.1//EN" "http://www.w3.org/Graphics/SVG/1.1/DTD/svg11.dtd">
<svg xmlns="http://www.w3.org/2000/svg" version="1.1" viewBox="0.00 0.00 100.00 100.00">
<g stroke-width="2.00" fill="none" stroke-linecap="butt">
<path stroke="#2180c8" vector-effect="non-scaling-stroke" d="
  M 44.39 62.04
  Q 64.51 67.37 66.20 87.98"
/>
<path stroke="#97defd" vector-effect="non-scaling-stroke" d="
  M 34.62 38.06
  Q 33.40 37.91 32.87 36.77
  Q 32.65 36.30 32.14 36.19
  Q 30.53 35.85 28.49 35.99
  Q 27.97 36.02 28.02 36.54
  C 28.38 39.85 31.41 41.47 34.57 41.68
  Q 35.24 41.72 35.23 42.39
  L 35.22 43.48
  Q 35.22 44.00 35.73 43.99
  L 36.13 43.99
  Q 36.75 43.99 36.75 43.37
  L 36.74 42.27
  Q 36.74 41.68 37.33 41.65
  C 45.97 41.14 46.55 31.00 37.42 30.20
  Q 36.80 30.14 36.80 29.52
  L 36.76 26.53
  A 0.51 0.50 -85.4 0 1 37.35 26.02
  Q 38.45 26.22 38.85 27.30
  Q 39.21 28.26 40.23 28.25
  L 42.92 28.24
  Q 43.96 28.24 43.66 27.24
  Q 42.34 22.92 37.34 22.44
  Q 36.73 22.38 36.74 21.77
  L 36.76 20.56
  Q 36.76 20.07 36.27 20.03
  L 35.89 20.01
  Q 35.26 19.97 35.21 20.60
  Q 35.16 21.21 35.30 21.76
  Q 35.45 22.35 34.84 22.39
  Q 30.81 22.66 29.20 25.01
  C 26.23 29.35 29.92 33.31 34.38 33.76
  Q 35.21 33.84 35.21 34.67
  L 35.21 37.54
  Q 35.21 38.14 34.62 38.06"
/>
<path stroke="#97defd" vector-effect="non-scaling-stroke" d="
  M 35.21 29.12
  L 35.25 26.36
  A 0.27 0.27 0.0 0 0 34.99 26.09
  L 34.84 26.08
  A 1.86 1.53 1.0 0 0 32.95 27.58
  L 32.95 27.82
  A 1.86 1.53 1.0 0 0 34.78 29.38
  L 34.93 29.38
  A 0.27 0.27 0.0 0 0 35.21 29.12"
/>
<path stroke="#97defd" vector-effect="non-scaling-stroke" d="
  M 36.78 34.94
  L 36.82 37.78
  A 0.29 0.29 0.0 0 0 37.11 38.06
  L 37.29 38.06
  A 2.01 1.57 -0.7 0 0 39.28 36.46
  L 39.28 36.18
  A 2.01 1.57 -0.7 0 0 37.25 34.64
  L 37.07 34.64
  A 0.29 0.29 0.0 0 0 36.78 34.94"
/>
</g>
<path fill="#2ebcfa" d="
  M 55.98 32.00
  A 19.98 19.98 0.0 0 1 36.00 51.98
  A 19.98 19.98 0.0 0 1 16.02 32.00
  A 19.98 19.98 0.0 0 1 36.00 12.02
  A 19.98 19.98 0.0 0 1 55.98 32.00
  Z
  M 34.62 38.06
  Q 33.40 37.91 32.87 36.77
  Q 32.65 36.30 32.14 36.19
  Q 30.53 35.85 28.49 35.99
  Q 27.97 36.02 28.02 36.54
  C 28.38 39.85 31.41 41.47 34.57 41.68
  Q 35.24 41.72 35.23 42.39
  L 35.22 43.48
  Q 35.22 44.00 35.73 43.99
  L 36.13 43.99
  Q 36.75 43.99 36.75 43.37
  L 36.74 42.27
  Q 36.74 41.68 37.33 41.65
  C 45.97 41.14 46.55 31.00 37.42 30.20
  Q 36.80 30.14 36.80 29.52
  L 36.76 26.53
  A 0.51 0.50 -85.4 0 1 37.35 26.02
  Q 38.45 26.22 38.85 27.30
  Q 39.21 28.26 40.23 28.25
  L 42.92 28.24
  Q 43.96 28.24 43.66 27.24
  Q 42.34 22.92 37.34 22.44
  Q 36.73 22.38 36.74 21.77
  L 36.76 20.56
  Q 36.76 20.07 36.27 20.03
  L 35.89 20.01
  Q 35.26 19.97 35.21 20.60
  Q 35.16 21.21 35.30 21.76
  Q 35.45 22.35 34.84 22.39
  Q 30.81 22.66 29.20 25.01
  C 26.23 29.35 29.92 33.31 34.38 33.76
  Q 35.21 33.84 35.21 34.67
  L 35.21 37.54
  Q 35.21 38.14 34.62 38.06
  Z"
/>
<path fill="#ffffff" d="
  M 35.21 37.54
  L 35.21 34.67
  Q 35.21 33.84 34.38 33.76
  C 29.92 33.31 26.23 29.35 29.20 25.01
  Q 30.81 22.66 34.84 22.39
  Q 35.45 22.35 35.30 21.76
  Q 35.16 21.21 35.21 20.60
  Q 35.26 19.97 35.89 20.01
  L 36.27 20.03
  Q 36.76 20.07 36.76 20.56
  L 36.74 21.77
  Q 36.73 22.38 37.34 22.44
  Q 42.34 22.92 43.66 27.24
  Q 43.96 28.24 42.92 28.24
  L 40.23 28.25
  Q 39.21 28.26 38.85 27.30
  Q 38.45 26.22 37.35 26.02
  A 0.51 0.50 -85.4 0 0 36.76 26.53
  L 36.80 29.52
  Q 36.80 30.14 37.42 30.20
  C 46.55 31.00 45.97 41.14 37.33 41.65
  Q 36.74 41.68 36.74 42.27
  L 36.75 43.37
  Q 36.75 43.99 36.13 43.99
  L 35.73 43.99
  Q 35.22 44.00 35.22 43.48
  L 35.23 42.39
  Q 35.24 41.72 34.57 41.68
  C 31.41 41.47 28.38 39.85 28.02 36.54
  Q 27.97 36.02 28.49 35.99
  Q 30.53 35.85 32.14 36.19
  Q 32.65 36.30 32.87 36.77
  Q 33.40 37.91 34.62 38.06
  Q 35.21 38.14 35.21 37.54
  Z
  M 35.21 29.12
  L 35.25 26.36
  A 0.27 0.27 0.0 0 0 34.99 26.09
  L 34.84 26.08
  A 1.86 1.53 1.0 0 0 32.95 27.58
  L 32.95 27.82
  A 1.86 1.53 1.0 0 0 34.78 29.38
  L 34.93 29.38
  A 0.27 0.27 0.0 0 0 35.21 29.12
  Z
  M 36.78 34.94
  L 36.82 37.78
  A 0.29 0.29 0.0 0 0 37.11 38.06
  L 37.29 38.06
  A 2.01 1.57 -0.7 0 0 39.28 36.46
  L 39.28 36.18
  A 2.01 1.57 -0.7 0 0 37.25 34.64
  L 37.07 34.64
  A 0.29 0.29 0.0 0 0 36.78 34.94
  Z"
/>
<path fill="#2ebcfa" d="
  M 35.21 29.12
  A 0.27 0.27 0.0 0 1 34.93 29.38
  L 34.78 29.38
  A 1.86 1.53 1.0 0 1 32.95 27.82
  L 32.95 27.58
  A 1.86 1.53 1.0 0 1 34.84 26.08
  L 34.99 26.09
  A 0.27 0.27 0.0 0 1 35.25 26.36
  L 35.21 29.12
  Z"
/>
<path fill="#2ebcfa" d="
  M 36.78 34.94
  A 0.29 0.29 0.0 0 1 37.07 34.64
  L 37.25 34.64
  A 2.01 1.57 -0.7 0 1 39.28 36.18
  L 39.28 36.46
  A 2.01 1.57 -0.7 0 1 37.29 38.06
  L 37.11 38.06
  A 0.29 0.29 0.0 0 1 36.82 37.78
  L 36.78 34.94
  Z"
/>
<circle fill="#144496" cx="76.00" cy="48.00" r="9.98"/>
<path fill="#2ebcfa" d="
  M 44.39 62.04
  Q 64.51 67.37 66.20 87.98
  Q 52.94 88.01 39.66 88.00
  Q 29.82 88.00 26.18 86.78
  C 15.68 83.26 8.25 73.92 8.00 62.59
  Q 7.99 62.03 8.55 62.03
  L 44.39 62.04
  Z"
/>
<path fill="#144496" d="
  M 44.39 62.04
  Q 62.81 61.97 81.09 62.01
  Q 85.63 62.02 87.51 62.84
  C 90.77 64.27 92.25 67.80 92.04 71.24
  C 91.73 76.56 93.69 84.21 87.53 87.15
  Q 85.81 87.97 82.34 87.99
  Q 74.27 88.03 66.20 87.98
  Q 64.51 67.37 44.39 62.04
  Z"
/>
</svg>
